<?xml version="1.0" encoding="UTF-8" standalone="no"?>
<!DOCTYPE svg PUBLIC "-//W3C//DTD SVG 1.1//EN"
 "http://www.w3.org/Graphics/SVG/1.1/DTD/svg11.dtd">
<!-- Generated by graphviz version 2.40.1 (20161225.0304)
 -->
<!-- Title: dependencies Pages: 1 -->
<svg width="929pt" height="211pt"
 viewBox="0.00 0.00 929.00 211.00" xmlns="http://www.w3.org/2000/svg" xmlns:xlink="http://www.w3.org/1999/xlink">
<g id="graph0" class="graph" transform="scale(1 1) rotate(0) translate(4 207)">
<title>dependencies</title>
<polygon fill="#ffffff" stroke="transparent" points="-4,4 -4,-207 925,-207 925,4 -4,4"/>
<text text-anchor="start" x="439.5091" y="-42.4" font-family="sans-serif" font-weight="bold" font-size="14.00" fill="#000000">Legend</text>
<polygon fill="#ffffb3" stroke="transparent" points="226.5,-10 226.5,-30 246.5,-30 246.5,-10 226.5,-10"/>
<text text-anchor="start" x="250.129" y="-15.4" font-family="sans-serif" font-size="14.00" fill="#000000"> &#160;Declarations</text>
<polygon fill="#8dd3c7" stroke="transparent" points="339.5,-10 339.5,-30 359.5,-30 359.5,-10 339.5,-10"/>
<text text-anchor="start" x="363.2251" y="-15.4" font-family="sans-serif" font-size="14.00" fill="#000000"> &#160;Module</text>
<polygon fill="#80b1d3" stroke="transparent" points="425.5,-10 425.5,-30 445.5,-30 445.5,-10 425.5,-10"/>
<text text-anchor="start" x="449.2812" y="-15.4" font-family="sans-serif" font-size="14.00" fill="#000000"> &#160;Bootstrap</text>
<polygon fill="#fdb462" stroke="transparent" points="522.5,-10 522.5,-30 542.5,-30 542.5,-10 522.5,-10"/>
<text text-anchor="start" x="546.1732" y="-15.4" font-family="sans-serif" font-size="14.00" fill="#000000"> &#160;Providers</text>
<polygon fill="#fb8072" stroke="transparent" points="618.5,-10 618.5,-30 638.5,-30 638.5,-10 618.5,-10"/>
<text text-anchor="start" x="642.2258" y="-15.4" font-family="sans-serif" font-size="14.00" fill="#000000"> &#160;Exports</text>
<g id="clust1" class="cluster">
<title>cluster_DashboardModule</title>
<polygon fill="none" stroke="#000000" stroke-dasharray="1,5" points="8,-70 8,-195 913,-195 913,-70 8,-70"/>
</g>
<g id="clust2" class="cluster">
<title>cluster_DashboardModule_declarations</title>
<polygon fill="none" stroke="#000000" points="305,-78 305,-130 905,-130 905,-78 305,-78"/>
</g>
<g id="clust7" class="cluster">
<title>cluster_DashboardModule_imports</title>
<polygon fill="none" stroke="#000000" points="16,-78 16,-130 297,-130 297,-78 16,-78"/>
</g>
<!-- DashboardComponent -->
<g id="node1" class="node">
<title>DashboardComponent</title>
<polygon fill="#ffffb3" stroke="#000000" points="896.9734,-122 755.0266,-122 755.0266,-86 896.9734,-86 896.9734,-122"/>
<text text-anchor="middle" x="826" y="-99.8" font-family="Times,serif" font-size="14.00" fill="#000000">DashboardComponent</text>
</g>
<!-- DashboardModule -->
<g id="node5" class="node">
<title>DashboardModule</title>
<polygon fill="#8dd3c7" stroke="#000000" points="500.191,-187 497.191,-191 476.191,-191 473.191,-187 379.809,-187 379.809,-151 500.191,-151 500.191,-187"/>
<text text-anchor="middle" x="440" y="-164.8" font-family="Times,serif" font-size="14.00" fill="#000000">DashboardModule</text>
</g>
<!-- DashboardComponent&#45;&gt;DashboardModule -->
<g id="edge1" class="edge">
<title>DashboardComponent&#45;&gt;DashboardModule</title>
<path fill="none" stroke="#000000" d="M826,-122.2843C826,-143.3211 826,-175 826,-175 826,-175 510.3125,-175 510.3125,-175"/>
<polygon fill="#000000" stroke="#000000" points="510.3125,-171.5001 500.3125,-175 510.3125,-178.5001 510.3125,-171.5001"/>
</g>
<!-- TimelineComponent -->
<g id="node2" class="node">
<title>TimelineComponent</title>
<polygon fill="#ffffb3" stroke="#000000" points="736.8767,-122 605.1233,-122 605.1233,-86 736.8767,-86 736.8767,-122"/>
<text text-anchor="middle" x="671" y="-99.8" font-family="Times,serif" font-size="14.00" fill="#000000">TimelineComponent</text>
</g>
<!-- TimelineComponent&#45;&gt;DashboardModule -->
<g id="edge2" class="edge">
<title>TimelineComponent&#45;&gt;DashboardModule</title>
<path fill="none" stroke="#000000" d="M671,-122.0225C671,-139.3734 671,-163 671,-163 671,-163 510.3908,-163 510.3908,-163"/>
<polygon fill="#000000" stroke="#000000" points="510.3908,-159.5001 500.3908,-163 510.3908,-166.5001 510.3908,-159.5001"/>
</g>
<!-- NotificationComponent -->
<g id="node3" class="node">
<title>NotificationComponent</title>
<polygon fill="#ffffb3" stroke="#000000" points="587.4818,-122 438.5182,-122 438.5182,-86 587.4818,-86 587.4818,-122"/>
<text text-anchor="middle" x="513" y="-99.8" font-family="Times,serif" font-size="14.00" fill="#000000">NotificationComponent</text>
</g>
<!-- NotificationComponent&#45;&gt;DashboardModule -->
<g id="edge3" class="edge">
<title>NotificationComponent&#45;&gt;DashboardModule</title>
<path fill="none" stroke="#000000" d="M469.3023,-122.1061C469.3023,-122.1061 469.3023,-140.991 469.3023,-140.991"/>
<polygon fill="#000000" stroke="#000000" points="465.8023,-140.9909 469.3023,-150.991 472.8023,-140.991 465.8023,-140.9909"/>
</g>
<!-- ChatComponent -->
<g id="node4" class="node">
<title>ChatComponent</title>
<polygon fill="#ffffb3" stroke="#000000" points="420.7744,-122 313.2256,-122 313.2256,-86 420.7744,-86 420.7744,-122"/>
<text text-anchor="middle" x="367" y="-99.8" font-family="Times,serif" font-size="14.00" fill="#000000">ChatComponent</text>
</g>
<!-- ChatComponent&#45;&gt;DashboardModule -->
<g id="edge4" class="edge">
<title>ChatComponent&#45;&gt;DashboardModule</title>
<path fill="none" stroke="#000000" d="M400.3959,-122.1061C400.3959,-122.1061 400.3959,-140.991 400.3959,-140.991"/>
<polygon fill="#000000" stroke="#000000" points="396.8959,-140.9909 400.3959,-150.991 403.8959,-140.991 396.8959,-140.9909"/>
</g>
<!-- DashboardRoutingModule -->
<g id="node6" class="node">
<title>DashboardRoutingModule</title>
<polygon fill="#8dd3c7" stroke="#000000" points="288.8089,-122 285.8089,-126 264.8089,-126 261.8089,-122 123.1911,-122 123.1911,-86 288.8089,-86 288.8089,-122"/>
<text text-anchor="middle" x="206" y="-99.8" font-family="Times,serif" font-size="14.00" fill="#000000">DashboardRoutingModule</text>
</g>
<!-- DashboardRoutingModule&#45;&gt;DashboardModule -->
<g id="edge5" class="edge">
<title>DashboardRoutingModule&#45;&gt;DashboardModule</title>
<path fill="none" stroke="#000000" d="M206,-122.0225C206,-139.3734 206,-163 206,-163 206,-163 369.7392,-163 369.7392,-163"/>
<polygon fill="#000000" stroke="#000000" points="369.7392,-166.5001 379.7392,-163 369.7392,-159.5001 369.7392,-166.5001"/>
</g>
<!-- StatModule -->
<g id="node7" class="node">
<title>StatModule</title>
<polygon fill="#8dd3c7" stroke="#000000" points="105.8289,-122 102.8289,-126 81.8289,-126 78.8289,-122 24.1711,-122 24.1711,-86 105.8289,-86 105.8289,-122"/>
<text text-anchor="middle" x="65" y="-99.8" font-family="Times,serif" font-size="14.00" fill="#000000">StatModule</text>
</g>
<!-- StatModule&#45;&gt;DashboardModule -->
<g id="edge6" class="edge">
<title>StatModule&#45;&gt;DashboardModule</title>
<path fill="none" stroke="#000000" d="M65,-122.2843C65,-143.3211 65,-175 65,-175 65,-175 369.7498,-175 369.7498,-175"/>
<polygon fill="#000000" stroke="#000000" points="369.7498,-178.5001 379.7498,-175 369.7497,-171.5001 369.7498,-178.5001"/>
</g>
</g>
</svg>
