<?xml version="1.0" encoding="UTF-8" standalone="no"?>
<!DOCTYPE svg PUBLIC "-//W3C//DTD SVG 1.1//EN"
 "http://www.w3.org/Graphics/SVG/1.1/DTD/svg11.dtd">
<!-- Generated by graphviz version 2.40.1 (20161225.0304)
 -->
<!-- Title: dependencies Pages: 1 -->
<svg width="504pt" height="211pt"
 viewBox="0.00 0.00 504.00 211.00" xmlns="http://www.w3.org/2000/svg" xmlns:xlink="http://www.w3.org/1999/xlink">
<g id="graph0" class="graph" transform="scale(1 1) rotate(0) translate(4 207)">
<title>dependencies</title>
<polygon fill="#ffffff" stroke="transparent" points="-4,4 -4,-207 500,-207 500,4 -4,4"/>
<text text-anchor="start" x="227.0091" y="-42.4" font-family="sans-serif" font-weight="bold" font-size="14.00" fill="#000000">Legend</text>
<polygon fill="#ffffb3" stroke="transparent" points="14,-10 14,-30 34,-30 34,-10 14,-10"/>
<text text-anchor="start" x="37.629" y="-15.4" font-family="sans-serif" font-size="14.00" fill="#000000"> &#160;Declarations</text>
<polygon fill="#8dd3c7" stroke="transparent" points="127,-10 127,-30 147,-30 147,-10 127,-10"/>
<text text-anchor="start" x="150.7251" y="-15.4" font-family="sans-serif" font-size="14.00" fill="#000000"> &#160;Module</text>
<polygon fill="#80b1d3" stroke="transparent" points="213,-10 213,-30 233,-30 233,-10 213,-10"/>
<text text-anchor="start" x="236.7812" y="-15.4" font-family="sans-serif" font-size="14.00" fill="#000000"> &#160;Bootstrap</text>
<polygon fill="#fdb462" stroke="transparent" points="310,-10 310,-30 330,-30 330,-10 310,-10"/>
<text text-anchor="start" x="333.6732" y="-15.4" font-family="sans-serif" font-size="14.00" fill="#000000"> &#160;Providers</text>
<polygon fill="#fb8072" stroke="transparent" points="406,-10 406,-30 426,-30 426,-10 406,-10"/>
<text text-anchor="start" x="429.7258" y="-15.4" font-family="sans-serif" font-size="14.00" fill="#000000"> &#160;Exports</text>
<g id="clust1" class="cluster">
<title>cluster_TablesModule</title>
<polygon fill="none" stroke="#000000" stroke-dasharray="1,5" points="17,-70 17,-195 479,-195 479,-70 17,-70"/>
</g>
<g id="clust2" class="cluster">
<title>cluster_TablesModule_declarations</title>
<polygon fill="none" stroke="#000000" points="337,-78 337,-130 471,-130 471,-78 337,-78"/>
</g>
<g id="clust4" class="cluster">
<title>cluster_TablesModule_imports</title>
<polygon fill="none" stroke="#000000" points="25,-78 25,-130 329,-130 329,-78 25,-78"/>
</g>
<!-- TablesComponent -->
<g id="node1" class="node">
<title>TablesComponent</title>
<polygon fill="#ffffb3" stroke="#000000" points="463.1499,-122 344.8501,-122 344.8501,-86 463.1499,-86 463.1499,-122"/>
<text text-anchor="middle" x="404" y="-99.8" font-family="Times,serif" font-size="14.00" fill="#000000">TablesComponent</text>
</g>
<!-- TablesModule -->
<g id="node2" class="node">
<title>TablesModule</title>
<polygon fill="#8dd3c7" stroke="#000000" points="298.3669,-187 295.3669,-191 274.3669,-191 271.3669,-187 201.6331,-187 201.6331,-151 298.3669,-151 298.3669,-187"/>
<text text-anchor="middle" x="250" y="-164.8" font-family="Times,serif" font-size="14.00" fill="#000000">TablesModule</text>
</g>
<!-- TablesComponent&#45;&gt;TablesModule -->
<g id="edge1" class="edge">
<title>TablesComponent&#45;&gt;TablesModule</title>
<path fill="none" stroke="#000000" d="M404,-122.1061C404,-141.3391 404,-169 404,-169 404,-169 308.7266,-169 308.7266,-169"/>
<polygon fill="#000000" stroke="#000000" points="308.7266,-165.5001 298.7266,-169 308.7265,-172.5001 308.7266,-165.5001"/>
</g>
<!-- TablesRoutingModule -->
<g id="node3" class="node">
<title>TablesRoutingModule</title>
<polygon fill="#8dd3c7" stroke="#000000" points="320.9846,-122 317.9846,-126 296.9846,-126 293.9846,-122 179.0154,-122 179.0154,-86 320.9846,-86 320.9846,-122"/>
<text text-anchor="middle" x="250" y="-99.8" font-family="Times,serif" font-size="14.00" fill="#000000">TablesRoutingModule</text>
</g>
<!-- TablesRoutingModule&#45;&gt;TablesModule -->
<g id="edge2" class="edge">
<title>TablesRoutingModule&#45;&gt;TablesModule</title>
<path fill="none" stroke="#000000" d="M250,-122.1061C250,-122.1061 250,-140.991 250,-140.991"/>
<polygon fill="#000000" stroke="#000000" points="246.5001,-140.9909 250,-150.991 253.5001,-140.991 246.5001,-140.9909"/>
</g>
<!-- PageHeaderModule -->
<g id="node4" class="node">
<title>PageHeaderModule</title>
<polygon fill="#8dd3c7" stroke="#000000" points="160.6727,-122 157.6727,-126 136.6727,-126 133.6727,-122 33.3273,-122 33.3273,-86 160.6727,-86 160.6727,-122"/>
<text text-anchor="middle" x="97" y="-99.8" font-family="Times,serif" font-size="14.00" fill="#000000">PageHeaderModule</text>
</g>
<!-- PageHeaderModule&#45;&gt;TablesModule -->
<g id="edge3" class="edge">
<title>PageHeaderModule&#45;&gt;TablesModule</title>
<path fill="none" stroke="#000000" d="M97,-122.1061C97,-141.3391 97,-169 97,-169 97,-169 191.5898,-169 191.5898,-169"/>
<polygon fill="#000000" stroke="#000000" points="191.5899,-172.5001 201.5898,-169 191.5898,-165.5001 191.5899,-172.5001"/>
</g>
</g>
</svg>
