<?xml version="1.0" encoding="UTF-8" standalone="no"?>
<!DOCTYPE svg PUBLIC "-//W3C//DTD SVG 1.1//EN"
 "http://www.w3.org/Graphics/SVG/1.1/DTD/svg11.dtd">
<!-- Generated by graphviz version 2.40.1 (20161225.0304)
 -->
<!-- Title: dependencies Pages: 1 -->
<svg width="504pt" height="211pt"
 viewBox="0.00 0.00 504.00 211.00" xmlns="http://www.w3.org/2000/svg" xmlns:xlink="http://www.w3.org/1999/xlink">
<g id="graph0" class="graph" transform="scale(1 1) rotate(0) translate(4 207)">
<title>dependencies</title>
<polygon fill="#ffffff" stroke="transparent" points="-4,4 -4,-207 500,-207 500,4 -4,4"/>
<text text-anchor="start" x="227.0091" y="-42.4" font-family="sans-serif" font-weight="bold" font-size="14.00" fill="#000000">Legend</text>
<polygon fill="#ffffb3" stroke="transparent" points="14,-10 14,-30 34,-30 34,-10 14,-10"/>
<text text-anchor="start" x="37.629" y="-15.4" font-family="sans-serif" font-size="14.00" fill="#000000"> &#160;Declarations</text>
<polygon fill="#8dd3c7" stroke="transparent" points="127,-10 127,-30 147,-30 147,-10 127,-10"/>
<text text-anchor="start" x="150.7251" y="-15.4" font-family="sans-serif" font-size="14.00" fill="#000000"> &#160;Module</text>
<polygon fill="#80b1d3" stroke="transparent" points="213,-10 213,-30 233,-30 233,-10 213,-10"/>
<text text-anchor="start" x="236.7812" y="-15.4" font-family="sans-serif" font-size="14.00" fill="#000000"> &#160;Bootstrap</text>
<polygon fill="#fdb462" stroke="transparent" points="310,-10 310,-30 330,-30 330,-10 310,-10"/>
<text text-anchor="start" x="333.6732" y="-15.4" font-family="sans-serif" font-size="14.00" fill="#000000"> &#160;Providers</text>
<polygon fill="#fb8072" stroke="transparent" points="406,-10 406,-30 426,-30 426,-10 406,-10"/>
<text text-anchor="start" x="429.7258" y="-15.4" font-family="sans-serif" font-size="14.00" fill="#000000"> &#160;Exports</text>
<g id="clust1" class="cluster">
<title>cluster_GridModule</title>
<polygon fill="none" stroke="#000000" stroke-dasharray="1,5" points="29,-70 29,-195 467,-195 467,-70 29,-70"/>
</g>
<g id="clust2" class="cluster">
<title>cluster_GridModule_declarations</title>
<polygon fill="none" stroke="#000000" points="337,-78 337,-130 459,-130 459,-78 337,-78"/>
</g>
<g id="clust4" class="cluster">
<title>cluster_GridModule_imports</title>
<polygon fill="none" stroke="#000000" points="37,-78 37,-130 329,-130 329,-78 37,-78"/>
</g>
<!-- GridComponent -->
<g id="node1" class="node">
<title>GridComponent</title>
<polygon fill="#ffffb3" stroke="#000000" points="451.4902,-122 344.5098,-122 344.5098,-86 451.4902,-86 451.4902,-122"/>
<text text-anchor="middle" x="398" y="-99.8" font-family="Times,serif" font-size="14.00" fill="#000000">GridComponent</text>
</g>
<!-- GridModule -->
<g id="node2" class="node">
<title>GridModule</title>
<polygon fill="#8dd3c7" stroke="#000000" points="298.7079,-187 295.7079,-191 274.7079,-191 271.7079,-187 213.2921,-187 213.2921,-151 298.7079,-151 298.7079,-187"/>
<text text-anchor="middle" x="256" y="-164.8" font-family="Times,serif" font-size="14.00" fill="#000000">GridModule</text>
</g>
<!-- GridComponent&#45;&gt;GridModule -->
<g id="edge1" class="edge">
<title>GridComponent&#45;&gt;GridModule</title>
<path fill="none" stroke="#000000" d="M398,-122.1061C398,-141.3391 398,-169 398,-169 398,-169 308.6047,-169 308.6047,-169"/>
<polygon fill="#000000" stroke="#000000" points="308.6047,-165.5001 298.6047,-169 308.6046,-172.5001 308.6047,-165.5001"/>
</g>
<!-- GridRoutingModule -->
<g id="node3" class="node">
<title>GridRoutingModule</title>
<polygon fill="#8dd3c7" stroke="#000000" points="321.3258,-122 318.3258,-126 297.3258,-126 294.3258,-122 190.6742,-122 190.6742,-86 321.3258,-86 321.3258,-122"/>
<text text-anchor="middle" x="256" y="-99.8" font-family="Times,serif" font-size="14.00" fill="#000000">GridRoutingModule</text>
</g>
<!-- GridRoutingModule&#45;&gt;GridModule -->
<g id="edge2" class="edge">
<title>GridRoutingModule&#45;&gt;GridModule</title>
<path fill="none" stroke="#000000" d="M256,-122.1061C256,-122.1061 256,-140.991 256,-140.991"/>
<polygon fill="#000000" stroke="#000000" points="252.5001,-140.9909 256,-150.991 259.5001,-140.991 252.5001,-140.9909"/>
</g>
<!-- PageHeaderModule -->
<g id="node4" class="node">
<title>PageHeaderModule</title>
<polygon fill="#8dd3c7" stroke="#000000" points="172.6727,-122 169.6727,-126 148.6727,-126 145.6727,-122 45.3273,-122 45.3273,-86 172.6727,-86 172.6727,-122"/>
<text text-anchor="middle" x="109" y="-99.8" font-family="Times,serif" font-size="14.00" fill="#000000">PageHeaderModule</text>
</g>
<!-- PageHeaderModule&#45;&gt;GridModule -->
<g id="edge3" class="edge">
<title>PageHeaderModule&#45;&gt;GridModule</title>
<path fill="none" stroke="#000000" d="M109,-122.1061C109,-141.3391 109,-169 109,-169 109,-169 203.0863,-169 203.0863,-169"/>
<polygon fill="#000000" stroke="#000000" points="203.0864,-172.5001 213.0863,-169 203.0863,-165.5001 203.0864,-172.5001"/>
</g>
</g>
</svg>
