<?xml version="1.0" encoding="UTF-8" standalone="no"?>
<!DOCTYPE svg PUBLIC "-//W3C//DTD SVG 1.1//EN"
 "http://www.w3.org/Graphics/SVG/1.1/DTD/svg11.dtd">
<!-- Generated by graphviz version 2.40.1 (20161225.0304)
 -->
<!-- Title: dependencies Pages: 1 -->
<svg width="617pt" height="211pt"
 viewBox="0.00 0.00 617.00 211.00" xmlns="http://www.w3.org/2000/svg" xmlns:xlink="http://www.w3.org/1999/xlink">
<g id="graph0" class="graph" transform="scale(1 1) rotate(0) translate(4 207)">
<title>dependencies</title>
<polygon fill="#ffffff" stroke="transparent" points="-4,4 -4,-207 613,-207 613,4 -4,4"/>
<text text-anchor="start" x="283.5091" y="-42.4" font-family="sans-serif" font-weight="bold" font-size="14.00" fill="#000000">Legend</text>
<polygon fill="#ffffb3" stroke="transparent" points="70.5,-10 70.5,-30 90.5,-30 90.5,-10 70.5,-10"/>
<text text-anchor="start" x="94.129" y="-15.4" font-family="sans-serif" font-size="14.00" fill="#000000"> &#160;Declarations</text>
<polygon fill="#8dd3c7" stroke="transparent" points="183.5,-10 183.5,-30 203.5,-30 203.5,-10 183.5,-10"/>
<text text-anchor="start" x="207.2251" y="-15.4" font-family="sans-serif" font-size="14.00" fill="#000000"> &#160;Module</text>
<polygon fill="#80b1d3" stroke="transparent" points="269.5,-10 269.5,-30 289.5,-30 289.5,-10 269.5,-10"/>
<text text-anchor="start" x="293.2812" y="-15.4" font-family="sans-serif" font-size="14.00" fill="#000000"> &#160;Bootstrap</text>
<polygon fill="#fdb462" stroke="transparent" points="366.5,-10 366.5,-30 386.5,-30 386.5,-10 366.5,-10"/>
<text text-anchor="start" x="390.1732" y="-15.4" font-family="sans-serif" font-size="14.00" fill="#000000"> &#160;Providers</text>
<polygon fill="#fb8072" stroke="transparent" points="462.5,-10 462.5,-30 482.5,-30 482.5,-10 462.5,-10"/>
<text text-anchor="start" x="486.2258" y="-15.4" font-family="sans-serif" font-size="14.00" fill="#000000"> &#160;Exports</text>
<g id="clust1" class="cluster">
<title>cluster_EntryModule</title>
<polygon fill="none" stroke="#000000" stroke-dasharray="1,5" points="8,-70 8,-195 601,-195 601,-70 8,-70"/>
</g>
<g id="clust2" class="cluster">
<title>cluster_EntryModule_declarations</title>
<polygon fill="none" stroke="#000000" points="465,-78 465,-130 593,-130 593,-78 465,-78"/>
</g>
<g id="clust4" class="cluster">
<title>cluster_EntryModule_imports</title>
<polygon fill="none" stroke="#000000" points="16,-78 16,-130 457,-130 457,-78 16,-78"/>
</g>
<!-- EntryComponent -->
<g id="node1" class="node">
<title>EntryComponent</title>
<polygon fill="#ffffb3" stroke="#000000" points="585.437,-122 472.563,-122 472.563,-86 585.437,-86 585.437,-122"/>
<text text-anchor="middle" x="529" y="-99.8" font-family="Times,serif" font-size="14.00" fill="#000000">EntryComponent</text>
</g>
<!-- EntryModule -->
<g id="node2" class="node">
<title>EntryModule</title>
<polygon fill="#8dd3c7" stroke="#000000" points="351.1543,-187 348.1543,-191 327.1543,-191 324.1543,-187 260.8457,-187 260.8457,-151 351.1543,-151 351.1543,-187"/>
<text text-anchor="middle" x="306" y="-164.8" font-family="Times,serif" font-size="14.00" fill="#000000">EntryModule</text>
</g>
<!-- EntryComponent&#45;&gt;EntryModule -->
<g id="edge1" class="edge">
<title>EntryComponent&#45;&gt;EntryModule</title>
<path fill="none" stroke="#000000" d="M529,-122.1061C529,-141.3391 529,-169 529,-169 529,-169 361.3962,-169 361.3962,-169"/>
<polygon fill="#000000" stroke="#000000" points="361.3962,-165.5001 351.3962,-169 361.3961,-172.5001 361.3962,-165.5001"/>
</g>
<!-- EntryRoutingModule -->
<g id="node3" class="node">
<title>EntryRoutingModule</title>
<polygon fill="#8dd3c7" stroke="#000000" points="448.7716,-122 445.7716,-126 424.7716,-126 421.7716,-122 313.2284,-122 313.2284,-86 448.7716,-86 448.7716,-122"/>
<text text-anchor="middle" x="381" y="-99.8" font-family="Times,serif" font-size="14.00" fill="#000000">EntryRoutingModule</text>
</g>
<!-- EntryRoutingModule&#45;&gt;EntryModule -->
<g id="edge2" class="edge">
<title>EntryRoutingModule&#45;&gt;EntryModule</title>
<path fill="none" stroke="#000000" d="M332.2206,-122.1061C332.2206,-122.1061 332.2206,-140.991 332.2206,-140.991"/>
<polygon fill="#000000" stroke="#000000" points="328.7206,-140.9909 332.2206,-150.991 335.7206,-140.991 328.7206,-140.9909"/>
</g>
<!-- ListedItemsModule -->
<g id="node4" class="node">
<title>ListedItemsModule</title>
<polygon fill="#8dd3c7" stroke="#000000" points="294.6443,-122 291.6443,-126 270.6443,-126 267.6443,-122 169.3557,-122 169.3557,-86 294.6443,-86 294.6443,-122"/>
<text text-anchor="middle" x="232" y="-99.8" font-family="Times,serif" font-size="14.00" fill="#000000">ListedItemsModule</text>
</g>
<!-- ListedItemsModule&#45;&gt;EntryModule -->
<g id="edge3" class="edge">
<title>ListedItemsModule&#45;&gt;EntryModule</title>
<path fill="none" stroke="#000000" d="M277.7476,-122.1061C277.7476,-122.1061 277.7476,-140.991 277.7476,-140.991"/>
<polygon fill="#000000" stroke="#000000" points="274.2476,-140.9909 277.7476,-150.991 281.2476,-140.991 274.2476,-140.9909"/>
</g>
<!-- PageHeaderModule -->
<g id="node5" class="node">
<title>PageHeaderModule</title>
<polygon fill="#8dd3c7" stroke="#000000" points="151.6727,-122 148.6727,-126 127.6727,-126 124.6727,-122 24.3273,-122 24.3273,-86 151.6727,-86 151.6727,-122"/>
<text text-anchor="middle" x="88" y="-99.8" font-family="Times,serif" font-size="14.00" fill="#000000">PageHeaderModule</text>
</g>
<!-- PageHeaderModule&#45;&gt;EntryModule -->
<g id="edge4" class="edge">
<title>PageHeaderModule&#45;&gt;EntryModule</title>
<path fill="none" stroke="#000000" d="M88,-122.1061C88,-141.3391 88,-169 88,-169 88,-169 250.8303,-169 250.8303,-169"/>
<polygon fill="#000000" stroke="#000000" points="250.8303,-172.5001 260.8303,-169 250.8302,-165.5001 250.8303,-172.5001"/>
</g>
</g>
</svg>
