<?xml version="1.0" encoding="UTF-8" standalone="no"?>
<!DOCTYPE svg PUBLIC "-//W3C//DTD SVG 1.1//EN"
 "http://www.w3.org/Graphics/SVG/1.1/DTD/svg11.dtd">
<!-- Generated by graphviz version 2.40.1 (20161225.0304)
 -->
<!-- Title: dependencies Pages: 1 -->
<svg width="2286pt" height="211pt"
 viewBox="0.00 0.00 2286.00 211.00" xmlns="http://www.w3.org/2000/svg" xmlns:xlink="http://www.w3.org/1999/xlink">
<g id="graph0" class="graph" transform="scale(1 1) rotate(0) translate(4 207)">
<title>dependencies</title>
<polygon fill="#ffffff" stroke="transparent" points="-4,4 -4,-207 2282,-207 2282,4 -4,4"/>
<text text-anchor="start" x="1118.0091" y="-42.4" font-family="sans-serif" font-weight="bold" font-size="14.00" fill="#000000">Legend</text>
<polygon fill="#ffffb3" stroke="transparent" points="905,-10 905,-30 925,-30 925,-10 905,-10"/>
<text text-anchor="start" x="928.629" y="-15.4" font-family="sans-serif" font-size="14.00" fill="#000000"> &#160;Declarations</text>
<polygon fill="#8dd3c7" stroke="transparent" points="1018,-10 1018,-30 1038,-30 1038,-10 1018,-10"/>
<text text-anchor="start" x="1041.7251" y="-15.4" font-family="sans-serif" font-size="14.00" fill="#000000"> &#160;Module</text>
<polygon fill="#80b1d3" stroke="transparent" points="1104,-10 1104,-30 1124,-30 1124,-10 1104,-10"/>
<text text-anchor="start" x="1127.7812" y="-15.4" font-family="sans-serif" font-size="14.00" fill="#000000"> &#160;Bootstrap</text>
<polygon fill="#fdb462" stroke="transparent" points="1201,-10 1201,-30 1221,-30 1221,-10 1201,-10"/>
<text text-anchor="start" x="1224.6732" y="-15.4" font-family="sans-serif" font-size="14.00" fill="#000000"> &#160;Providers</text>
<polygon fill="#fb8072" stroke="transparent" points="1297,-10 1297,-30 1317,-30 1317,-10 1297,-10"/>
<text text-anchor="start" x="1320.7258" y="-15.4" font-family="sans-serif" font-size="14.00" fill="#000000"> &#160;Exports</text>
<g id="clust1" class="cluster">
<title>cluster_BsComponentModule</title>
<polygon fill="none" stroke="#000000" stroke-dasharray="1,5" points="8,-70 8,-195 2270,-195 2270,-70 8,-70"/>
</g>
<g id="clust2" class="cluster">
<title>cluster_BsComponentModule_declarations</title>
<polygon fill="none" stroke="#000000" points="168,-78 168,-130 2262,-130 2262,-78 168,-78"/>
</g>
<g id="clust17" class="cluster">
<title>cluster_BsComponentModule_imports</title>
<polygon fill="none" stroke="#000000" points="16,-78 16,-130 160,-130 160,-78 16,-78"/>
</g>
<!-- BsComponentComponent -->
<g id="node1" class="node">
<title>BsComponentComponent</title>
<polygon fill="#ffffb3" stroke="#000000" points="2253.9466,-122 2092.0534,-122 2092.0534,-86 2253.9466,-86 2253.9466,-122"/>
<text text-anchor="middle" x="2173" y="-99.8" font-family="Times,serif" font-size="14.00" fill="#000000">BsComponentComponent</text>
</g>
<!-- BsComponentModule -->
<g id="node15" class="node">
<title>BsComponentModule</title>
<polygon fill="#8dd3c7" stroke="#000000" points="1198.6638,-187 1195.6638,-191 1174.6638,-191 1171.6638,-187 1059.3362,-187 1059.3362,-151 1198.6638,-151 1198.6638,-187"/>
<text text-anchor="middle" x="1129" y="-164.8" font-family="Times,serif" font-size="14.00" fill="#000000">BsComponentModule</text>
</g>
<!-- BsComponentComponent&#45;&gt;BsComponentModule -->
<g id="edge1" class="edge">
<title>BsComponentComponent&#45;&gt;BsComponentModule</title>
<path fill="none" stroke="#000000" d="M2173,-122.3228C2173,-145.6602 2173,-183 2173,-183 2173,-183 1208.7141,-183 1208.7141,-183"/>
<polygon fill="#000000" stroke="#000000" points="1208.7141,-179.5001 1198.7141,-183 1208.714,-186.5001 1208.7141,-179.5001"/>
</g>
<!-- ButtonsComponent -->
<g id="node2" class="node">
<title>ButtonsComponent</title>
<polygon fill="#ffffb3" stroke="#000000" points="2074.3948,-122 1949.6052,-122 1949.6052,-86 2074.3948,-86 2074.3948,-122"/>
<text text-anchor="middle" x="2012" y="-99.8" font-family="Times,serif" font-size="14.00" fill="#000000">ButtonsComponent</text>
</g>
<!-- ButtonsComponent&#45;&gt;BsComponentModule -->
<g id="edge2" class="edge">
<title>ButtonsComponent&#45;&gt;BsComponentModule</title>
<path fill="none" stroke="#000000" d="M2012,-122.2921C2012,-144.2057 2012,-178 2012,-178 2012,-178 1209.0256,-178 1209.0256,-178"/>
<polygon fill="#000000" stroke="#000000" points="1209.0256,-174.5001 1199.0256,-178 1209.0256,-181.5001 1209.0256,-174.5001"/>
</g>
<!-- AlertComponent -->
<g id="node3" class="node">
<title>AlertComponent</title>
<polygon fill="#ffffb3" stroke="#000000" points="1932.0954,-122 1821.9046,-122 1821.9046,-86 1932.0954,-86 1932.0954,-122"/>
<text text-anchor="middle" x="1877" y="-99.8" font-family="Times,serif" font-size="14.00" fill="#000000">AlertComponent</text>
</g>
<!-- AlertComponent&#45;&gt;BsComponentModule -->
<g id="edge3" class="edge">
<title>AlertComponent&#45;&gt;BsComponentModule</title>
<path fill="none" stroke="#000000" d="M1877,-122.0267C1877,-142.7672 1877,-174 1877,-174 1877,-174 1208.6983,-174 1208.6983,-174"/>
<polygon fill="#000000" stroke="#000000" points="1208.6984,-170.5001 1198.6983,-174 1208.6983,-177.5001 1208.6984,-170.5001"/>
</g>
<!-- ModalComponent -->
<g id="node4" class="node">
<title>ModalComponent</title>
<polygon fill="#ffffb3" stroke="#000000" points="1803.8823,-122 1686.1177,-122 1686.1177,-86 1803.8823,-86 1803.8823,-122"/>
<text text-anchor="middle" x="1745" y="-99.8" font-family="Times,serif" font-size="14.00" fill="#000000">ModalComponent</text>
</g>
<!-- ModalComponent&#45;&gt;BsComponentModule -->
<g id="edge4" class="edge">
<title>ModalComponent&#45;&gt;BsComponentModule</title>
<path fill="none" stroke="#000000" d="M1745,-122.1061C1745,-141.3391 1745,-169 1745,-169 1745,-169 1208.7642,-169 1208.7642,-169"/>
<polygon fill="#000000" stroke="#000000" points="1208.7642,-165.5001 1198.7642,-169 1208.7642,-172.5001 1208.7642,-165.5001"/>
</g>
<!-- CollapseComponent -->
<g id="node5" class="node">
<title>CollapseComponent</title>
<polygon fill="#ffffb3" stroke="#000000" points="1668.3244,-122 1537.6756,-122 1537.6756,-86 1668.3244,-86 1668.3244,-122"/>
<text text-anchor="middle" x="1603" y="-99.8" font-family="Times,serif" font-size="14.00" fill="#000000">CollapseComponent</text>
</g>
<!-- CollapseComponent&#45;&gt;BsComponentModule -->
<g id="edge5" class="edge">
<title>CollapseComponent&#45;&gt;BsComponentModule</title>
<path fill="none" stroke="#000000" d="M1603,-122.302C1603,-140.2699 1603,-165 1603,-165 1603,-165 1208.6856,-165 1208.6856,-165"/>
<polygon fill="#000000" stroke="#000000" points="1208.6857,-161.5001 1198.6856,-165 1208.6856,-168.5001 1208.6857,-161.5001"/>
</g>
<!-- DatePickerComponent -->
<g id="node6" class="node">
<title>DatePickerComponent</title>
<polygon fill="#ffffb3" stroke="#000000" points="1519.5226,-122 1376.4774,-122 1376.4774,-86 1519.5226,-86 1519.5226,-122"/>
<text text-anchor="middle" x="1448" y="-99.8" font-family="Times,serif" font-size="14.00" fill="#000000">DatePickerComponent</text>
</g>
<!-- DatePickerComponent&#45;&gt;BsComponentModule -->
<g id="edge6" class="edge">
<title>DatePickerComponent&#45;&gt;BsComponentModule</title>
<path fill="none" stroke="#000000" d="M1448,-122.027C1448,-138.3976 1448,-160 1448,-160 1448,-160 1209.0059,-160 1209.0059,-160"/>
<polygon fill="#000000" stroke="#000000" points="1209.0059,-156.5001 1199.0059,-160 1209.0059,-163.5001 1209.0059,-156.5001"/>
</g>
<!-- DropdownComponent -->
<g id="node7" class="node">
<title>DropdownComponent</title>
<polygon fill="#ffffb3" stroke="#000000" points="1358.7064,-122 1217.2936,-122 1217.2936,-86 1358.7064,-86 1358.7064,-122"/>
<text text-anchor="middle" x="1288" y="-99.8" font-family="Times,serif" font-size="14.00" fill="#000000">DropdownComponent</text>
</g>
<!-- DropdownComponent&#45;&gt;BsComponentModule -->
<g id="edge7" class="edge">
<title>DropdownComponent&#45;&gt;BsComponentModule</title>
<path fill="none" stroke="#000000" d="M1288,-122.1871C1288,-137.1824 1288,-156 1288,-156 1288,-156 1208.7397,-156 1208.7397,-156"/>
<polygon fill="#000000" stroke="#000000" points="1208.7398,-152.5001 1198.7397,-156 1208.7397,-159.5001 1208.7398,-152.5001"/>
</g>
<!-- PaginationComponent -->
<g id="node8" class="node">
<title>PaginationComponent</title>
<polygon fill="#ffffb3" stroke="#000000" points="1199.7162,-122 1058.2838,-122 1058.2838,-86 1199.7162,-86 1199.7162,-122"/>
<text text-anchor="middle" x="1129" y="-99.8" font-family="Times,serif" font-size="14.00" fill="#000000">PaginationComponent</text>
</g>
<!-- PaginationComponent&#45;&gt;BsComponentModule -->
<g id="edge8" class="edge">
<title>PaginationComponent&#45;&gt;BsComponentModule</title>
<path fill="none" stroke="#000000" d="M1129,-122.1061C1129,-122.1061 1129,-140.991 1129,-140.991"/>
<polygon fill="#000000" stroke="#000000" points="1125.5001,-140.9909 1129,-150.991 1132.5001,-140.991 1125.5001,-140.9909"/>
</g>
<!-- PopOverComponent -->
<g id="node9" class="node">
<title>PopOverComponent</title>
<polygon fill="#ffffb3" stroke="#000000" points="1040.5968,-122 909.4032,-122 909.4032,-86 1040.5968,-86 1040.5968,-122"/>
<text text-anchor="middle" x="975" y="-99.8" font-family="Times,serif" font-size="14.00" fill="#000000">PopOverComponent</text>
</g>
<!-- PopOverComponent&#45;&gt;BsComponentModule -->
<g id="edge9" class="edge">
<title>PopOverComponent&#45;&gt;BsComponentModule</title>
<path fill="none" stroke="#000000" d="M975,-122.1871C975,-137.1824 975,-156 975,-156 975,-156 1049.2094,-156 1049.2094,-156"/>
<polygon fill="#000000" stroke="#000000" points="1049.2094,-159.5001 1059.2094,-156 1049.2093,-152.5001 1049.2094,-159.5001"/>
</g>
<!-- ProgressbarComponent -->
<g id="node10" class="node">
<title>ProgressbarComponent</title>
<polygon fill="#ffffb3" stroke="#000000" points="891.9158,-122 744.0842,-122 744.0842,-86 891.9158,-86 891.9158,-122"/>
<text text-anchor="middle" x="818" y="-99.8" font-family="Times,serif" font-size="14.00" fill="#000000">ProgressbarComponent</text>
</g>
<!-- ProgressbarComponent&#45;&gt;BsComponentModule -->
<g id="edge10" class="edge">
<title>ProgressbarComponent&#45;&gt;BsComponentModule</title>
<path fill="none" stroke="#000000" d="M818,-122.027C818,-138.3976 818,-160 818,-160 818,-160 1049.2055,-160 1049.2055,-160"/>
<polygon fill="#000000" stroke="#000000" points="1049.2056,-163.5001 1059.2055,-160 1049.2055,-156.5001 1049.2056,-163.5001"/>
</g>
<!-- TabsComponent -->
<g id="node11" class="node">
<title>TabsComponent</title>
<polygon fill="#ffffb3" stroke="#000000" points="726.0452,-122 617.9548,-122 617.9548,-86 726.0452,-86 726.0452,-122"/>
<text text-anchor="middle" x="672" y="-99.8" font-family="Times,serif" font-size="14.00" fill="#000000">TabsComponent</text>
</g>
<!-- TabsComponent&#45;&gt;BsComponentModule -->
<g id="edge11" class="edge">
<title>TabsComponent&#45;&gt;BsComponentModule</title>
<path fill="none" stroke="#000000" d="M672,-122.302C672,-140.2699 672,-165 672,-165 672,-165 1049.0941,-165 1049.0941,-165"/>
<polygon fill="#000000" stroke="#000000" points="1049.0941,-168.5001 1059.0941,-165 1049.094,-161.5001 1049.0941,-168.5001"/>
</g>
<!-- RatingComponent -->
<g id="node12" class="node">
<title>RatingComponent</title>
<polygon fill="#ffffb3" stroke="#000000" points="599.1653,-122 480.8347,-122 480.8347,-86 599.1653,-86 599.1653,-122"/>
<text text-anchor="middle" x="540" y="-99.8" font-family="Times,serif" font-size="14.00" fill="#000000">RatingComponent</text>
</g>
<!-- RatingComponent&#45;&gt;BsComponentModule -->
<g id="edge12" class="edge">
<title>RatingComponent&#45;&gt;BsComponentModule</title>
<path fill="none" stroke="#000000" d="M540,-122.1061C540,-141.3391 540,-169 540,-169 540,-169 1049.121,-169 1049.121,-169"/>
<polygon fill="#000000" stroke="#000000" points="1049.121,-172.5001 1059.121,-169 1049.121,-165.5001 1049.121,-172.5001"/>
</g>
<!-- TooltipComponent -->
<g id="node13" class="node">
<title>TooltipComponent</title>
<polygon fill="#ffffb3" stroke="#000000" points="462.0576,-122 339.9424,-122 339.9424,-86 462.0576,-86 462.0576,-122"/>
<text text-anchor="middle" x="401" y="-99.8" font-family="Times,serif" font-size="14.00" fill="#000000">TooltipComponent</text>
</g>
<!-- TooltipComponent&#45;&gt;BsComponentModule -->
<g id="edge13" class="edge">
<title>TooltipComponent&#45;&gt;BsComponentModule</title>
<path fill="none" stroke="#000000" d="M401,-122.0267C401,-142.7672 401,-174 401,-174 401,-174 1049.1963,-174 1049.1963,-174"/>
<polygon fill="#000000" stroke="#000000" points="1049.1963,-177.5001 1059.1963,-174 1049.1963,-170.5001 1049.1963,-177.5001"/>
</g>
<!-- TimepickerComponent -->
<g id="node14" class="node">
<title>TimepickerComponent</title>
<polygon fill="#ffffb3" stroke="#000000" points="321.8613,-122 176.1387,-122 176.1387,-86 321.8613,-86 321.8613,-122"/>
<text text-anchor="middle" x="249" y="-99.8" font-family="Times,serif" font-size="14.00" fill="#000000">TimepickerComponent</text>
</g>
<!-- TimepickerComponent&#45;&gt;BsComponentModule -->
<g id="edge14" class="edge">
<title>TimepickerComponent&#45;&gt;BsComponentModule</title>
<path fill="none" stroke="#000000" d="M249,-122.2921C249,-144.2057 249,-178 249,-178 249,-178 1049.2123,-178 1049.2123,-178"/>
<polygon fill="#000000" stroke="#000000" points="1049.2124,-181.5001 1059.2123,-178 1049.2123,-174.5001 1049.2124,-181.5001"/>
</g>
<!-- PageHeaderModule -->
<g id="node16" class="node">
<title>PageHeaderModule</title>
<polygon fill="#8dd3c7" stroke="#000000" points="151.6727,-122 148.6727,-126 127.6727,-126 124.6727,-122 24.3273,-122 24.3273,-86 151.6727,-86 151.6727,-122"/>
<text text-anchor="middle" x="88" y="-99.8" font-family="Times,serif" font-size="14.00" fill="#000000">PageHeaderModule</text>
</g>
<!-- PageHeaderModule&#45;&gt;BsComponentModule -->
<g id="edge15" class="edge">
<title>PageHeaderModule&#45;&gt;BsComponentModule</title>
<path fill="none" stroke="#000000" d="M88,-122.3228C88,-145.6602 88,-183 88,-183 88,-183 1049.0806,-183 1049.0806,-183"/>
<polygon fill="#000000" stroke="#000000" points="1049.0806,-186.5001 1059.0806,-183 1049.0806,-179.5001 1049.0806,-186.5001"/>
</g>
</g>
</svg>
