<?xml version="1.0" encoding="UTF-8" standalone="no"?>
<!DOCTYPE svg PUBLIC "-//W3C//DTD SVG 1.1//EN"
 "http://www.w3.org/Graphics/SVG/1.1/DTD/svg11.dtd">
<!-- Generated by graphviz version 2.40.1 (20161225.0304)
 -->
<!-- Title: dependencies Pages: 1 -->
<svg width="504pt" height="211pt"
 viewBox="0.00 0.00 504.00 211.00" xmlns="http://www.w3.org/2000/svg" xmlns:xlink="http://www.w3.org/1999/xlink">
<g id="graph0" class="graph" transform="scale(1 1) rotate(0) translate(4 207)">
<title>dependencies</title>
<polygon fill="#ffffff" stroke="transparent" points="-4,4 -4,-207 500,-207 500,4 -4,4"/>
<text text-anchor="start" x="227.0091" y="-42.4" font-family="sans-serif" font-weight="bold" font-size="14.00" fill="#000000">Legend</text>
<polygon fill="#ffffb3" stroke="transparent" points="14,-10 14,-30 34,-30 34,-10 14,-10"/>
<text text-anchor="start" x="37.629" y="-15.4" font-family="sans-serif" font-size="14.00" fill="#000000"> &#160;Declarations</text>
<polygon fill="#8dd3c7" stroke="transparent" points="127,-10 127,-30 147,-30 147,-10 127,-10"/>
<text text-anchor="start" x="150.7251" y="-15.4" font-family="sans-serif" font-size="14.00" fill="#000000"> &#160;Module</text>
<polygon fill="#80b1d3" stroke="transparent" points="213,-10 213,-30 233,-30 233,-10 213,-10"/>
<text text-anchor="start" x="236.7812" y="-15.4" font-family="sans-serif" font-size="14.00" fill="#000000"> &#160;Bootstrap</text>
<polygon fill="#fdb462" stroke="transparent" points="310,-10 310,-30 330,-30 330,-10 310,-10"/>
<text text-anchor="start" x="333.6732" y="-15.4" font-family="sans-serif" font-size="14.00" fill="#000000"> &#160;Providers</text>
<polygon fill="#fb8072" stroke="transparent" points="406,-10 406,-30 426,-30 426,-10 406,-10"/>
<text text-anchor="start" x="429.7258" y="-15.4" font-family="sans-serif" font-size="14.00" fill="#000000"> &#160;Exports</text>
<g id="clust1" class="cluster">
<title>cluster_ServerErrorModule</title>
<polygon fill="none" stroke="#000000" stroke-dasharray="1,5" points="61,-70 61,-195 435,-195 435,-70 61,-70"/>
</g>
<g id="clust2" class="cluster">
<title>cluster_ServerErrorModule_declarations</title>
<polygon fill="none" stroke="#000000" points="263,-78 263,-130 427,-130 427,-78 263,-78"/>
</g>
<g id="clust4" class="cluster">
<title>cluster_ServerErrorModule_imports</title>
<polygon fill="none" stroke="#000000" points="69,-78 69,-130 255,-130 255,-78 69,-78"/>
</g>
<!-- ServerErrorComponent -->
<g id="node1" class="node">
<title>ServerErrorComponent</title>
<polygon fill="#ffffb3" stroke="#000000" points="418.9003,-122 271.0997,-122 271.0997,-86 418.9003,-86 418.9003,-122"/>
<text text-anchor="middle" x="345" y="-99.8" font-family="Times,serif" font-size="14.00" fill="#000000">ServerErrorComponent</text>
</g>
<!-- ServerErrorModule -->
<g id="node2" class="node">
<title>ServerErrorModule</title>
<polygon fill="#8dd3c7" stroke="#000000" points="315.6178,-187 312.6178,-191 291.6178,-191 288.6178,-187 190.3822,-187 190.3822,-151 315.6178,-151 315.6178,-187"/>
<text text-anchor="middle" x="253" y="-164.8" font-family="Times,serif" font-size="14.00" fill="#000000">ServerErrorModule</text>
</g>
<!-- ServerErrorComponent&#45;&gt;ServerErrorModule -->
<g id="edge1" class="edge">
<title>ServerErrorComponent&#45;&gt;ServerErrorModule</title>
<path fill="none" stroke="#000000" d="M293.5544,-122.1061C293.5544,-122.1061 293.5544,-140.991 293.5544,-140.991"/>
<polygon fill="#000000" stroke="#000000" points="290.0544,-140.9909 293.5544,-150.991 297.0544,-140.991 290.0544,-140.9909"/>
</g>
<!-- ServerErrorRoutingModule -->
<g id="node3" class="node">
<title>ServerErrorRoutingModule</title>
<polygon fill="#8dd3c7" stroke="#000000" points="247.2352,-122 244.2352,-126 223.2352,-126 220.2352,-122 76.7648,-122 76.7648,-86 247.2352,-86 247.2352,-122"/>
<text text-anchor="middle" x="162" y="-99.8" font-family="Times,serif" font-size="14.00" fill="#000000">ServerErrorRoutingModule</text>
</g>
<!-- ServerErrorRoutingModule&#45;&gt;ServerErrorModule -->
<g id="edge2" class="edge">
<title>ServerErrorRoutingModule&#45;&gt;ServerErrorModule</title>
<path fill="none" stroke="#000000" d="M218.7795,-122.1061C218.7795,-122.1061 218.7795,-140.991 218.7795,-140.991"/>
<polygon fill="#000000" stroke="#000000" points="215.2795,-140.9909 218.7795,-150.991 222.2795,-140.991 215.2795,-140.9909"/>
</g>
</g>
</svg>
