<?xml version="1.0" encoding="UTF-8" standalone="no"?>
<!DOCTYPE svg PUBLIC "-//W3C//DTD SVG 1.1//EN"
 "http://www.w3.org/Graphics/SVG/1.1/DTD/svg11.dtd">
<!-- Generated by graphviz version 2.40.1 (20161225.0304)
 -->
<!-- Title: dependencies Pages: 1 -->
<svg width="579pt" height="211pt"
 viewBox="0.00 0.00 579.00 211.00" xmlns="http://www.w3.org/2000/svg" xmlns:xlink="http://www.w3.org/1999/xlink">
<g id="graph0" class="graph" transform="scale(1 1) rotate(0) translate(4 207)">
<title>dependencies</title>
<polygon fill="#ffffff" stroke="transparent" points="-4,4 -4,-207 575,-207 575,4 -4,4"/>
<text text-anchor="start" x="264.5091" y="-42.4" font-family="sans-serif" font-weight="bold" font-size="14.00" fill="#000000">Legend</text>
<polygon fill="#ffffb3" stroke="transparent" points="51.5,-10 51.5,-30 71.5,-30 71.5,-10 51.5,-10"/>
<text text-anchor="start" x="75.129" y="-15.4" font-family="sans-serif" font-size="14.00" fill="#000000"> &#160;Declarations</text>
<polygon fill="#8dd3c7" stroke="transparent" points="164.5,-10 164.5,-30 184.5,-30 184.5,-10 164.5,-10"/>
<text text-anchor="start" x="188.2251" y="-15.4" font-family="sans-serif" font-size="14.00" fill="#000000"> &#160;Module</text>
<polygon fill="#80b1d3" stroke="transparent" points="250.5,-10 250.5,-30 270.5,-30 270.5,-10 250.5,-10"/>
<text text-anchor="start" x="274.2812" y="-15.4" font-family="sans-serif" font-size="14.00" fill="#000000"> &#160;Bootstrap</text>
<polygon fill="#fdb462" stroke="transparent" points="347.5,-10 347.5,-30 367.5,-30 367.5,-10 347.5,-10"/>
<text text-anchor="start" x="371.1732" y="-15.4" font-family="sans-serif" font-size="14.00" fill="#000000"> &#160;Providers</text>
<polygon fill="#fb8072" stroke="transparent" points="443.5,-10 443.5,-30 463.5,-30 463.5,-10 443.5,-10"/>
<text text-anchor="start" x="467.2258" y="-15.4" font-family="sans-serif" font-size="14.00" fill="#000000"> &#160;Exports</text>
<g id="clust1" class="cluster">
<title>cluster_ChartsModule</title>
<polygon fill="none" stroke="#000000" stroke-dasharray="1,5" points="8,-70 8,-195 563,-195 563,-70 8,-70"/>
</g>
<g id="clust2" class="cluster">
<title>cluster_ChartsModule_declarations</title>
<polygon fill="none" stroke="#000000" points="421,-78 421,-130 555,-130 555,-78 421,-78"/>
</g>
<g id="clust4" class="cluster">
<title>cluster_ChartsModule_imports</title>
<polygon fill="none" stroke="#000000" points="16,-78 16,-130 413,-130 413,-78 16,-78"/>
</g>
<!-- ChartsComponent -->
<g id="node1" class="node">
<title>ChartsComponent</title>
<polygon fill="#ffffb3" stroke="#000000" points="546.8795,-122 429.1205,-122 429.1205,-86 546.8795,-86 546.8795,-122"/>
<text text-anchor="middle" x="488" y="-99.8" font-family="Times,serif" font-size="14.00" fill="#000000">ChartsComponent</text>
</g>
<!-- ChartsModule -->
<g id="node2" class="node">
<title>ChartsModule</title>
<polygon fill="#8dd3c7" stroke="#000000" points="351.0968,-187 348.0968,-191 327.0968,-191 324.0968,-187 254.9032,-187 254.9032,-151 351.0968,-151 351.0968,-187"/>
<text text-anchor="middle" x="303" y="-164.8" font-family="Times,serif" font-size="14.00" fill="#000000">ChartsModule</text>
</g>
<!-- ChartsComponent&#45;&gt;ChartsModule -->
<g id="edge1" class="edge">
<title>ChartsComponent&#45;&gt;ChartsModule</title>
<path fill="none" stroke="#000000" d="M488,-122.1061C488,-141.3391 488,-169 488,-169 488,-169 361.1236,-169 361.1236,-169"/>
<polygon fill="#000000" stroke="#000000" points="361.1237,-165.5001 351.1236,-169 361.1236,-172.5001 361.1237,-165.5001"/>
</g>
<!-- Ng2Charts -->
<g id="node3" class="node">
<title>Ng2Charts</title>
<polygon fill="#8dd3c7" stroke="#000000" points="405.1544,-122 402.1544,-126 381.1544,-126 378.1544,-122 328.8456,-122 328.8456,-86 405.1544,-86 405.1544,-122"/>
<text text-anchor="middle" x="367" y="-99.8" font-family="Times,serif" font-size="14.00" fill="#000000">Ng2Charts</text>
</g>
<!-- Ng2Charts&#45;&gt;ChartsModule -->
<g id="edge2" class="edge">
<title>Ng2Charts&#45;&gt;ChartsModule</title>
<path fill="none" stroke="#000000" d="M339.8608,-122.1061C339.8608,-122.1061 339.8608,-140.991 339.8608,-140.991"/>
<polygon fill="#000000" stroke="#000000" points="336.3609,-140.9909 339.8608,-150.991 343.3609,-140.991 336.3609,-140.9909"/>
</g>
<!-- ChartsRoutingModule -->
<g id="node4" class="node">
<title>ChartsRoutingModule</title>
<polygon fill="#8dd3c7" stroke="#000000" points="310.7148,-122 307.7148,-126 286.7148,-126 283.7148,-122 169.2852,-122 169.2852,-86 310.7148,-86 310.7148,-122"/>
<text text-anchor="middle" x="240" y="-99.8" font-family="Times,serif" font-size="14.00" fill="#000000">ChartsRoutingModule</text>
</g>
<!-- ChartsRoutingModule&#45;&gt;ChartsModule -->
<g id="edge3" class="edge">
<title>ChartsRoutingModule&#45;&gt;ChartsModule</title>
<path fill="none" stroke="#000000" d="M282.7795,-122.1061C282.7795,-122.1061 282.7795,-140.991 282.7795,-140.991"/>
<polygon fill="#000000" stroke="#000000" points="279.2795,-140.9909 282.7795,-150.991 286.2795,-140.991 279.2795,-140.9909"/>
</g>
<!-- PageHeaderModule -->
<g id="node5" class="node">
<title>PageHeaderModule</title>
<polygon fill="#8dd3c7" stroke="#000000" points="151.6727,-122 148.6727,-126 127.6727,-126 124.6727,-122 24.3273,-122 24.3273,-86 151.6727,-86 151.6727,-122"/>
<text text-anchor="middle" x="88" y="-99.8" font-family="Times,serif" font-size="14.00" fill="#000000">PageHeaderModule</text>
</g>
<!-- PageHeaderModule&#45;&gt;ChartsModule -->
<g id="edge4" class="edge">
<title>PageHeaderModule&#45;&gt;ChartsModule</title>
<path fill="none" stroke="#000000" d="M88,-122.1061C88,-141.3391 88,-169 88,-169 88,-169 244.7498,-169 244.7498,-169"/>
<polygon fill="#000000" stroke="#000000" points="244.7498,-172.5001 254.7498,-169 244.7498,-165.5001 244.7498,-172.5001"/>
</g>
</g>
</svg>
