<?xml version="1.0" encoding="UTF-8" standalone="no"?>
<!DOCTYPE svg PUBLIC "-//W3C//DTD SVG 1.1//EN"
 "http://www.w3.org/Graphics/SVG/1.1/DTD/svg11.dtd">
<!-- Generated by graphviz version 2.40.1 (20161225.0304)
 -->
<!-- Title: dependencies Pages: 1 -->
<svg width="534pt" height="211pt"
 viewBox="0.00 0.00 534.00 211.00" xmlns="http://www.w3.org/2000/svg" xmlns:xlink="http://www.w3.org/1999/xlink">
<g id="graph0" class="graph" transform="scale(1 1) rotate(0) translate(4 207)">
<title>dependencies</title>
<polygon fill="#ffffff" stroke="transparent" points="-4,4 -4,-207 530,-207 530,4 -4,4"/>
<text text-anchor="start" x="242.0091" y="-42.4" font-family="sans-serif" font-weight="bold" font-size="14.00" fill="#000000">Legend</text>
<polygon fill="#ffffb3" stroke="transparent" points="29,-10 29,-30 49,-30 49,-10 29,-10"/>
<text text-anchor="start" x="52.629" y="-15.4" font-family="sans-serif" font-size="14.00" fill="#000000"> &#160;Declarations</text>
<polygon fill="#8dd3c7" stroke="transparent" points="142,-10 142,-30 162,-30 162,-10 142,-10"/>
<text text-anchor="start" x="165.7251" y="-15.4" font-family="sans-serif" font-size="14.00" fill="#000000"> &#160;Module</text>
<polygon fill="#80b1d3" stroke="transparent" points="228,-10 228,-30 248,-30 248,-10 228,-10"/>
<text text-anchor="start" x="251.7812" y="-15.4" font-family="sans-serif" font-size="14.00" fill="#000000"> &#160;Bootstrap</text>
<polygon fill="#fdb462" stroke="transparent" points="325,-10 325,-30 345,-30 345,-10 325,-10"/>
<text text-anchor="start" x="348.6732" y="-15.4" font-family="sans-serif" font-size="14.00" fill="#000000"> &#160;Providers</text>
<polygon fill="#fb8072" stroke="transparent" points="421,-10 421,-30 441,-30 441,-10 421,-10"/>
<text text-anchor="start" x="444.7258" y="-15.4" font-family="sans-serif" font-size="14.00" fill="#000000"> &#160;Exports</text>
<g id="clust1" class="cluster">
<title>cluster_BsElementModule</title>
<polygon fill="none" stroke="#000000" stroke-dasharray="1,5" points="8,-70 8,-195 518,-195 518,-70 8,-70"/>
</g>
<g id="clust2" class="cluster">
<title>cluster_BsElementModule_declarations</title>
<polygon fill="none" stroke="#000000" points="352,-78 352,-130 510,-130 510,-78 352,-78"/>
</g>
<g id="clust4" class="cluster">
<title>cluster_BsElementModule_imports</title>
<polygon fill="none" stroke="#000000" points="16,-78 16,-130 344,-130 344,-78 16,-78"/>
</g>
<!-- BsElementComponent -->
<g id="node1" class="node">
<title>BsElementComponent</title>
<polygon fill="#ffffb3" stroke="#000000" points="502.2674,-122 359.7326,-122 359.7326,-86 502.2674,-86 502.2674,-122"/>
<text text-anchor="middle" x="431" y="-99.8" font-family="Times,serif" font-size="14.00" fill="#000000">BsElementComponent</text>
</g>
<!-- BsElementModule -->
<g id="node2" class="node">
<title>BsElementModule</title>
<polygon fill="#8dd3c7" stroke="#000000" points="313.4846,-187 310.4846,-191 289.4846,-191 286.4846,-187 192.5154,-187 192.5154,-151 313.4846,-151 313.4846,-187"/>
<text text-anchor="middle" x="253" y="-164.8" font-family="Times,serif" font-size="14.00" fill="#000000">BsElementModule</text>
</g>
<!-- BsElementComponent&#45;&gt;BsElementModule -->
<g id="edge1" class="edge">
<title>BsElementComponent&#45;&gt;BsElementModule</title>
<path fill="none" stroke="#000000" d="M431,-122.1061C431,-141.3391 431,-169 431,-169 431,-169 323.7597,-169 323.7597,-169"/>
<polygon fill="#000000" stroke="#000000" points="323.7597,-165.5001 313.7597,-169 323.7596,-172.5001 323.7597,-165.5001"/>
</g>
<!-- BsElementRoutingModule -->
<g id="node3" class="node">
<title>BsElementRoutingModule</title>
<polygon fill="#8dd3c7" stroke="#000000" points="336.1024,-122 333.1024,-126 312.1024,-126 309.1024,-122 169.8976,-122 169.8976,-86 336.1024,-86 336.1024,-122"/>
<text text-anchor="middle" x="253" y="-99.8" font-family="Times,serif" font-size="14.00" fill="#000000">BsElementRoutingModule</text>
</g>
<!-- BsElementRoutingModule&#45;&gt;BsElementModule -->
<g id="edge2" class="edge">
<title>BsElementRoutingModule&#45;&gt;BsElementModule</title>
<path fill="none" stroke="#000000" d="M253,-122.1061C253,-122.1061 253,-140.991 253,-140.991"/>
<polygon fill="#000000" stroke="#000000" points="249.5001,-140.9909 253,-150.991 256.5001,-140.991 249.5001,-140.9909"/>
</g>
<!-- PageHeaderModule -->
<g id="node4" class="node">
<title>PageHeaderModule</title>
<polygon fill="#8dd3c7" stroke="#000000" points="151.6727,-122 148.6727,-126 127.6727,-126 124.6727,-122 24.3273,-122 24.3273,-86 151.6727,-86 151.6727,-122"/>
<text text-anchor="middle" x="88" y="-99.8" font-family="Times,serif" font-size="14.00" fill="#000000">PageHeaderModule</text>
</g>
<!-- PageHeaderModule&#45;&gt;BsElementModule -->
<g id="edge3" class="edge">
<title>PageHeaderModule&#45;&gt;BsElementModule</title>
<path fill="none" stroke="#000000" d="M88,-122.1061C88,-141.3391 88,-169 88,-169 88,-169 182.497,-169 182.497,-169"/>
<polygon fill="#000000" stroke="#000000" points="182.497,-172.5001 192.497,-169 182.497,-165.5001 182.497,-172.5001"/>
</g>
</g>
</svg>
