<?xml version="1.0" encoding="UTF-8" standalone="no"?>
<!DOCTYPE svg PUBLIC "-//W3C//DTD SVG 1.1//EN"
 "http://www.w3.org/Graphics/SVG/1.1/DTD/svg11.dtd">
<!-- Generated by graphviz version 2.40.1 (20161225.0304)
 -->
<!-- Title: dependencies Pages: 1 -->
<svg width="616pt" height="284pt"
 viewBox="0.00 0.00 616.00 284.00" xmlns="http://www.w3.org/2000/svg" xmlns:xlink="http://www.w3.org/1999/xlink">
<g id="graph0" class="graph" transform="scale(1 1) rotate(0) translate(4 280)">
<title>dependencies</title>
<polygon fill="#ffffff" stroke="transparent" points="-4,4 -4,-280 612,-280 612,4 -4,4"/>
<text text-anchor="start" x="283.0091" y="-42.4" font-family="sans-serif" font-weight="bold" font-size="14.00" fill="#000000">Legend</text>
<polygon fill="#ffffb3" stroke="transparent" points="70,-10 70,-30 90,-30 90,-10 70,-10"/>
<text text-anchor="start" x="93.629" y="-15.4" font-family="sans-serif" font-size="14.00" fill="#000000"> &#160;Declarations</text>
<polygon fill="#8dd3c7" stroke="transparent" points="183,-10 183,-30 203,-30 203,-10 183,-10"/>
<text text-anchor="start" x="206.7251" y="-15.4" font-family="sans-serif" font-size="14.00" fill="#000000"> &#160;Module</text>
<polygon fill="#80b1d3" stroke="transparent" points="269,-10 269,-30 289,-30 289,-10 269,-10"/>
<text text-anchor="start" x="292.7812" y="-15.4" font-family="sans-serif" font-size="14.00" fill="#000000"> &#160;Bootstrap</text>
<polygon fill="#fdb462" stroke="transparent" points="366,-10 366,-30 386,-30 386,-10 366,-10"/>
<text text-anchor="start" x="389.6732" y="-15.4" font-family="sans-serif" font-size="14.00" fill="#000000"> &#160;Providers</text>
<polygon fill="#fb8072" stroke="transparent" points="462,-10 462,-30 482,-30 482,-10 462,-10"/>
<text text-anchor="start" x="485.7258" y="-15.4" font-family="sans-serif" font-size="14.00" fill="#000000"> &#160;Exports</text>
<g id="clust1" class="cluster">
<title>cluster_AppModule</title>
<polygon fill="none" stroke="#000000" stroke-dasharray="1,5" points="8,-70 8,-268 600,-268 600,-70 8,-70"/>
</g>
<g id="clust2" class="cluster">
<title>cluster_AppModule_declarations</title>
<polygon fill="none" stroke="#000000" points="470,-78 470,-130 592,-130 592,-78 470,-78"/>
</g>
<g id="clust4" class="cluster">
<title>cluster_AppModule_imports</title>
<polygon fill="none" stroke="#000000" points="318,-78 318,-130 462,-130 462,-78 318,-78"/>
</g>
<g id="clust6" class="cluster">
<title>cluster_AppModule_bootstrap</title>
<polygon fill="none" stroke="#000000" points="257,-208 257,-260 381,-260 381,-208 257,-208"/>
</g>
<g id="clust7" class="cluster">
<title>cluster_AppModule_providers</title>
<polygon fill="none" stroke="#000000" points="16,-78 16,-130 310,-130 310,-78 16,-78"/>
</g>
<!-- AppComponent -->
<g id="node1" class="node">
<title>AppComponent</title>
<polygon fill="#ffffb3" stroke="#000000" points="583.9399,-122 478.0601,-122 478.0601,-86 583.9399,-86 583.9399,-122"/>
<text text-anchor="middle" x="531" y="-99.8" font-family="Times,serif" font-size="14.00" fill="#000000">AppComponent</text>
</g>
<!-- AppModule -->
<g id="node2" class="node">
<title>AppModule</title>
<polygon fill="#8dd3c7" stroke="#000000" points="360.6571,-187 357.6571,-191 336.6571,-191 333.6571,-187 277.3429,-187 277.3429,-151 360.6571,-151 360.6571,-187"/>
<text text-anchor="middle" x="319" y="-164.8" font-family="Times,serif" font-size="14.00" fill="#000000">AppModule</text>
</g>
<!-- AppComponent&#45;&gt;AppModule -->
<g id="edge1" class="edge">
<title>AppComponent&#45;&gt;AppModule</title>
<path fill="none" stroke="#000000" d="M531,-122.1061C531,-141.3391 531,-169 531,-169 531,-169 370.8844,-169 370.8844,-169"/>
<polygon fill="#000000" stroke="#000000" points="370.8844,-165.5001 360.8844,-169 370.8843,-172.5001 370.8844,-165.5001"/>
</g>
<!-- AppComponent  -->
<g id="node4" class="node">
<title>AppComponent </title>
<polygon fill="#80b1d3" stroke="#000000" points="373.439,-252 264.561,-252 264.561,-216 373.439,-216 373.439,-252"/>
<text text-anchor="middle" x="319" y="-229.8" font-family="Times,serif" font-size="14.00" fill="#000000">AppComponent </text>
</g>
<!-- AppModule&#45;&gt;AppComponent  -->
<g id="edge3" class="edge">
<title>AppModule&#45;&gt;AppComponent </title>
<path fill="none" stroke="#000000" stroke-dasharray="1,5" d="M319,-187.1061C319,-187.1061 319,-205.991 319,-205.991"/>
<polygon fill="#000000" stroke="#000000" points="315.5001,-205.9909 319,-215.991 322.5001,-205.991 315.5001,-205.9909"/>
</g>
<!-- AppRoutingModule -->
<g id="node3" class="node">
<title>AppRoutingModule</title>
<polygon fill="#8dd3c7" stroke="#000000" points="454.2744,-122 451.2744,-126 430.2744,-126 427.2744,-122 325.7256,-122 325.7256,-86 454.2744,-86 454.2744,-122"/>
<text text-anchor="middle" x="390" y="-99.8" font-family="Times,serif" font-size="14.00" fill="#000000">AppRoutingModule</text>
</g>
<!-- AppRoutingModule&#45;&gt;AppModule -->
<g id="edge2" class="edge">
<title>AppRoutingModule&#45;&gt;AppModule</title>
<path fill="none" stroke="#000000" d="M343.2206,-122.1061C343.2206,-122.1061 343.2206,-140.991 343.2206,-140.991"/>
<polygon fill="#000000" stroke="#000000" points="339.7206,-140.9909 343.2206,-150.991 346.7206,-140.991 339.7206,-140.9909"/>
</g>
<!-- AuthGuard -->
<g id="node5" class="node">
<title>AuthGuard</title>
<ellipse fill="#fdb462" stroke="#000000" cx="248" cy="-104" rx="54.4566" ry="18"/>
<text text-anchor="middle" x="248" y="-99.8" font-family="Times,serif" font-size="14.00" fill="#000000">AuthGuard</text>
</g>
<!-- AuthGuard&#45;&gt;AppModule -->
<g id="edge4" class="edge">
<title>AuthGuard&#45;&gt;AppModule</title>
<path fill="none" stroke="#000000" d="M289.825,-115.6207C289.825,-115.6207 289.825,-140.8534 289.825,-140.8534"/>
<polygon fill="#000000" stroke="#000000" points="286.3251,-140.8533 289.825,-150.8534 293.3251,-140.8534 286.3251,-140.8533"/>
</g>
<!-- CommonService -->
<g id="node6" class="node">
<title>CommonService</title>
<ellipse fill="#fdb462" stroke="#000000" cx="100" cy="-104" rx="75.8836" ry="18"/>
<text text-anchor="middle" x="100" y="-99.8" font-family="Times,serif" font-size="14.00" fill="#000000">CommonService</text>
</g>
<!-- CommonService&#45;&gt;AppModule -->
<g id="edge5" class="edge">
<title>CommonService&#45;&gt;AppModule</title>
<path fill="none" stroke="#000000" d="M100,-122.1061C100,-141.3391 100,-169 100,-169 100,-169 267.2923,-169 267.2923,-169"/>
<polygon fill="#000000" stroke="#000000" points="267.2923,-172.5001 277.2923,-169 267.2923,-165.5001 267.2923,-172.5001"/>
</g>
</g>
</svg>
